<?xml version="1.0" encoding="UTF-8"?>
<svg width="32" height="20" viewBox="0 0 32 20" fill="none" xmlns="http://www.w3.org/2000/svg">
  <rect x="0" y="0" width="8" height="20" fill="#4ADE80"/>
  <path d="M14.7 15.8C13.8 15.8 13.1 15.6 12.5 15.2C11.9 14.8 11.5 14.2 11.3 13.5L12.8 13C12.9 13.4 13.1 13.7 13.4 13.9C13.7 14.1 14.2 14.2 14.7 14.2C15.2 14.2 15.6 14.1 15.9 13.8C16.2 13.5 16.3 13.2 16.3 12.8C16.3 12.4 16.2 12.1 15.9 11.8C15.6 11.5 15.2 11.4 14.7 11.4H13.8V9.8H14.7C15.1 9.8 15.4 9.7 15.7 9.5C16 9.3 16.1 9 16.1 8.6C16.1 8.2 16 7.9 15.7 7.7C15.4 7.5 15.1 7.4 14.7 7.4C14.3 7.4 14 7.5 13.7 7.7C13.4 7.9 13.2 8.2 13.1 8.6L11.6 8.1C11.8 7.5 12.2 7 12.7 6.6C13.2 6.2 13.9 6 14.7 6C15.5 6 16.2 6.2 16.7 6.6C17.2 7 17.5 7.6 17.5 8.3C17.5 8.7 17.4 9.1 17.2 9.4C17 9.7 16.7 9.9 16.3 10C16.8 10.1 17.2 10.4 17.5 10.8C17.8 11.2 18 11.7 18 12.3C18 13.1 17.7 13.8 17.1 14.4C16.5 15 15.7 15.8 14.7 15.8Z" fill="black"/>
  <path d="M22.5 15.8C21.7 15.8 21 15.6 20.4 15.2C19.8 14.8 19.3 14.2 19 13.5L20.5 12.8C20.7 13.2 20.9 13.5 21.2 13.7C21.5 13.9 21.9 14 22.4 14C22.9 14 23.3 13.9 23.6 13.6C23.9 13.3 24 12.9 24 12.4V6H25.5V12.4C25.5 13.3 25.2 14 24.6 14.5C24 15 23.3 15.8 22.5 15.8Z" fill="black"/>
</svg>
